<svg xmlns="http://www.w3.org/2000/svg" width="30" height="30" fill="none" viewBox="0 0 30 30"><path fill="#fff" d="m28.9.07-3.18 1.45c-.2.1-.4.22-.55.38l-5.18 5.18L2.18 4.94c-.32-.04-.65.07-.88.3l-.99 1c-.52.52-.36 1.4.32 1.71l12.77 5.73-3.67 3.66h-6.4c-.28 0-.55.11-.75.31l-.54.54c-.53.53-.35 1.43.33 1.72l5.4 2.32 2.32 5.4c.3.69 1.2.86 1.72.33l.54-.54c.2-.2.31-.47.31-.75v-6.4l3.67-3.67 5.72 12.77c.3.68 1.2.84 1.72.32l.99-1c.23-.22.34-.55.3-.87l-2.14-17.81 5.18-5.18c.16-.16.29-.34.38-.55l1.44-3.17A.78.78 0 0 0 28.9.07Z"/></svg>