<svg xmlns="http://www.w3.org/2000/svg" width="160" height="46" fill="none" viewBox="0 0 160 46"><g clip-path="url(#a)"><path fill="#1D2A38" d="M36.72 33.86a18.12 18.12 0 0 1-2.16 3.04l.02.02-.77.77A17.91 17.91 0 0 1 21.03 43c-4.82 0-9.35-1.88-12.76-5.28A17.92 17.92 0 0 1 3.02 23.9l.01-.15v-.13l.03-.22c0-.07 0-.13.02-.2l.02-.29.03-.18.03-.26.02-.14.04-.26.02-.16a2.52 2.52 0 0 1 .06-.31l.04-.18.04-.22c.1-.49.23-.98.38-1.46v-.02l.06-.19.05-.16c.1-.31.22-.63.34-.94l.05-.13.06-.15a25.04 25.04 0 0 0 .15-.35v-.03l.1-.22.08-.16c.46-.99 1.01-1.94 1.64-2.82l.1-.14.22-.3.11-.13.24-.3.14-.18.14-.17.15-.17.17-.2-2.12-2.12A20.9 20.9 0 0 0 0 24.97c0 5.62 2.19 10.9 6.16 14.87A20.88 20.88 0 0 0 21.03 46a20.88 20.88 0 0 0 17.87-9.96l-2.18-2.18Z"/><path fill="#fff" d="M9.81 36.19c3 3 6.98 4.64 11.22 4.64H21.62l.3-.02.23-.02h.16l.22-.03c.06 0 .12 0 .18-.02h.13l.08-.02.15-.02.58-.08.16-.03h.02l.12-.02h.02l.16-.04.42-.09.28-.06h.01l.07-.02.2-.05.15-.05c.05 0 .09-.02.12-.03.04 0 .07-.02.1-.03h.02a2.1 2.1 0 0 0 .3-.1l.13-.03.4-.14.1-.04h.02l.13-.05.18-.07.14-.05.23-.1.22-.09.2-.09.1-.04.04-.02.16-.08c.33-.16.66-.32.98-.5.03-.03.06-.05.1-.06l.22-.13.36-.22.5-.34.15-.1.02-.02.11-.07.01-.01.09-.06.14-.1.15-.12.09-.07.03-.03.15-.12a29 29 0 0 1 .16-.12v-.01l.3-.24.08-.08-2.12-2.12A12.88 12.88 0 1 1 16 13.14l-2.25-2.26a15.92 15.92 0 0 0-8.58 14.1c0 4.23 1.65 8.21 4.64 11.2Z"/><path fill="#fff" d="M39.02 21.03c0-5.62-2.19-10.9-6.16-14.87A20.89 20.89 0 0 0 18 0 21.12 21.12 0 0 0 .11 9.96l2.19 2.18c.61-1.08 1.34-2.1 2.16-3.03l-.02-.03.76-.77A17.91 17.91 0 0 1 18 3c4.81 0 9.34 1.88 12.75 5.28A17.91 17.91 0 0 1 36 22.1l-.01.15v.13a7 7 0 0 1-.03.22c0 .07 0 .13-.02.2 0 .1-.02.19-.03.29 0 .05 0 .12-.02.18l-.03.26-.02.14-.04.27-.03.15-.02.13a10.74 10.74 0 0 1-.12.58c-.1.5-.23.99-.37 1.47l-.06.2-.06.17c-.1.31-.21.63-.33.94l-.05.13-.06.14a26.77 26.77 0 0 0-.15.35l-.01.03-.1.22-.08.17c-.45.98-1 1.93-1.64 2.82l-.1.14a17.42 17.42 0 0 1-.32.43l-.24.3-.14.17-.13.16-.01.01-.15.17-.17.2 2.11 2.12a20.89 20.89 0 0 0 5.45-14.11Z"/><path fill="#1D2A38" d="m23.03 32.87 2.25 2.25a15.92 15.92 0 0 0 8.57-14.1c0-4.23-1.65-8.21-4.64-11.2a15.76 15.76 0 0 0-11.62-4.65h-.2l-.3.02-.23.02h-.1l-.06.01-.2.02-.2.02-.11.01h-.07l-.01.01-.16.02-.58.08-.15.03h-.02l-.12.03h-.03l-.16.03-.42.09-.28.06h-.01a.76.76 0 0 0-.07.02l-.2.05-.15.05c-.05 0-.09.02-.13.03l-.09.03h-.02a2.12 2.12 0 0 0-.3.1l-.13.03-.4.14-.1.04h-.03l-.12.05a3.8 3.8 0 0 0-.19.07l-.13.06-.23.1-.22.08-.2.1a3.5 3.5 0 0 1-.1.04l-.04.01-.16.08c-.34.16-.66.33-.98.51l-.1.06-.2.12-.24.14-.14.09-.5.33-.14.1-.03.02-.12.08-.01.01-.08.06-.14.1-.15.12-.09.07-.03.03-.15.12-.17.13a12.36 12.36 0 0 0-.37.32l2.12 2.12a12.88 12.88 0 1 1 13.37 21.64Z"/></g><g fill="#fff" clip-path="url(#b)"><path d="m57.92 30.24-.61 1.85h1.24l-.62-1.85h-.01ZM58.8 19.75a3.8 3.8 0 0 1-1.17 2.13c-.6.47-1.3.72-2.15.72-.7 0-1.33-.18-1.94-.53a3.06 3.06 0 0 1-1.3-1.59 6.48 6.48 0 0 1-.44-2.51c0-.75.13-1.48.37-2.17.24-.7.66-1.25 1.23-1.67.59-.4 1.33-.6 2.2-.6.77 0 1.39.17 1.89.55.5.37.88.96 1.14 1.77l.03.09 1.74-.4-.03-.1a4.79 4.79 0 0 0-1.72-2.54 5.03 5.03 0 0 0-3.02-.88c-1.03 0-2 .23-2.9.7a4.98 4.98 0 0 0-2.02 2.07 7.75 7.75 0 0 0-.08 6.3 4.76 4.76 0 0 0 1.85 2.24c.8.52 1.86.78 3.14.78 1.24 0 2.3-.34 3.15-1a5.16 5.16 0 0 0 1.8-2.92l.03-.1-1.75-.43-.04.09ZM74.7 12.78a5.8 5.8 0 0 0-3-.78c-1.68 0-3.06.55-4.12 1.65-1.06 1.09-1.6 2.63-1.6 4.55 0 1.03.24 2 .7 2.91a5.24 5.24 0 0 0 2.01 2.2c.88.53 1.9.79 3 .79 1.04 0 2.01-.24 2.9-.73.9-.47 1.58-1.2 2.09-2.14.48-.92.73-1.99.73-3.17a7 7 0 0 0-.7-3.12 5.2 5.2 0 0 0-2.02-2.16Zm-.2 8.63a3.72 3.72 0 0 1-2.8 1.19c-1.11 0-2.05-.4-2.8-1.17a4.52 4.52 0 0 1-1.1-3.2c0-1.69.39-2.91 1.15-3.62a3.93 3.93 0 0 1 2.76-1.08 3.61 3.61 0 0 1 3.41 2.13c.32.68.47 1.5.47 2.41 0 1.44-.36 2.57-1.09 3.34ZM92.57 12.5l-2.8 7.96c-.22.64-.4 1.14-.52 1.54l-.47-1.38L86 12.4h-.19v4.25l2.59 7.45h1.54l2.64-7.44V12.5ZM85.18 12.4h-1.7v11.7h1.7V12.4ZM94.87 12.4H93.2v11.7h1.68V12.4ZM102.7 12.4h-1.76v11.7h1.75V12.4ZM109.73 14.22a2.98 2.98 0 0 0-.98-1.14c-.4-.28-.9-.47-1.48-.56a9.75 9.75 0 0 0-1.8-.12h-2.15v1.56h2.27c.7 0 1.17.03 1.43.1.38.1.69.32.92.64.24.33.34.71.34 1.18 0 .63-.19 1.11-.58 1.46-.4.35-1.1.52-2.07.52h-2.3v1.58h2.29c1.66 0 2.86-.36 3.5-1.05.66-.7.99-1.55.99-2.55-.01-.6-.14-1.14-.38-1.62ZM120.74 12.4l-4.57 11.7h1.85l.52-1.37h-.02l1.32-3.55.28-.73.97-2.58h.02c.21-.58.38-1.17.53-1.74.17.55.41 1.23.7 1.99l1.19 3.05h-3L120 20.6h4.1l1.36 3.48h2l-4.9-11.7h-1.82ZM134.97 12.4h-1.63v11.7h1.63V12.4ZM141.07 21.2l-.04-.06v2.96h1.73V12.4h-1.7v8.8ZM135.59 16.15l4.82 7.07v-3l-4.82-7.06v2.99ZM157.92 12.4l-2.3 3.43c-.46.68-.86 1.32-1.2 1.88v-.02l-.97 1.47v4.94h1.76v-4.94l4.77-6.76h-2.06ZM154.05 17.08l-.72-1.16-2.35-3.52h-2.14l4.23 6.2.98-1.52ZM50 29.94h1.16v3.67h.65v-3.67h1.16v-.57H50v.57Z"/><path d="m57.66 29.37-1.54 4.24h.68l.32-.95h1.62l.32.95h.68l-1.54-4.24h-.54Zm-.35 2.72.61-1.85h.01l.62 1.85H57.3ZM65.04 31.88h.86v.22a.9.9 0 0 1-.25.65.83.83 0 0 1-.62.25.76.76 0 0 1-.4-.1.68.68 0 0 1-.26-.21.68.68 0 0 1-.16-.36 4.86 4.86 0 0 1-.05-.85 5 5 0 0 1 .05-.85.74.74 0 0 1 .16-.36.74.74 0 0 1 .27-.21.88.88 0 0 1 .91.08c.14.12.24.27.29.44h.68a1.58 1.58 0 0 0-.5-.9c-.25-.23-.59-.35-.99-.36-.33 0-.61.09-.84.24-.22.15-.39.33-.5.53-.06.1-.1.23-.14.4-.02.17-.04.5-.04 1 0 .48.01.8.04.98l.06.23.09.18c.1.2.27.37.5.52.22.15.5.23.83.24.43-.01.79-.16 1.08-.44.28-.29.43-.64.43-1.07v-.86h-1.5v.61ZM71.51 29.37h-.64v4.24h2.71v-.6h-2.07v-3.64ZM78.4 29.37h-.63v4.24h.64v-4.24ZM85.41 32.38l-1.93-3.01h-.6v4.24h.64V30.6h.01l1.92 3.02h.6v-4.24h-.64v3.01ZM90.53 33.61h2.71v-.6h-2.06v-1.25h1.76v-.57h-1.76v-1.22h2.06v-.6h-2.7v4.24ZM103.8 31.88h.87v.22a.9.9 0 0 1-.25.65.83.83 0 0 1-.62.25.76.76 0 0 1-.4-.1.68.68 0 0 1-.26-.21.68.68 0 0 1-.16-.36 4.8 4.8 0 0 1-.05-.85c0-.42.01-.7.05-.85a.74.74 0 0 1 .16-.36.74.74 0 0 1 .27-.21.87.87 0 0 1 .91.08c.14.12.24.27.29.44h.68a1.58 1.58 0 0 0-.5-.9c-.25-.23-.59-.35-1-.36-.32 0-.6.09-.83.24a1.44 1.44 0 0 0-.64.93c-.02.17-.04.5-.04 1 0 .48.01.8.04.98l.06.23.09.18c.1.2.26.37.5.52.22.15.5.23.83.24a1.5 1.5 0 0 0 1.51-1.5v-.87h-1.5v.61ZM112.34 30.1a1.5 1.5 0 0 0-1.33-.76c-.33 0-.61.07-.83.23-.23.15-.4.33-.5.52-.06.1-.11.24-.14.4-.03.18-.05.5-.05 1 0 .48.02.82.05.98.01.1.03.17.06.23l.08.19c.1.2.27.36.5.51.22.16.5.24.83.24.34 0 .62-.09.84-.24.23-.15.4-.32.49-.51a1 1 0 0 0 .15-.42c.03-.16.04-.5.04-.98 0-.5-.02-.82-.04-1a1 1 0 0 0-.15-.4Zm-.5 2.24a.8.8 0 0 1-.17.36.82.82 0 0 1-.66.31.76.76 0 0 1-.39-.1.67.67 0 0 1-.27-.21.68.68 0 0 1-.16-.36 4.8 4.8 0 0 1-.05-.85c0-.42.02-.7.05-.86a.73.73 0 0 1 .16-.35.73.73 0 0 1 .27-.21.91.91 0 0 1 .8 0c.1.05.18.13.25.21.08.1.14.21.17.35.02.15.04.44.04.86s-.01.7-.04.85ZM116.85 33.61h2.71v-.6h-2.06v-1.25h1.76v-.57h-1.76v-1.22h2.06v-.6h-2.71v4.24ZM125.33 31.19l-.48-.07a.85.85 0 0 1-.46-.2.46.46 0 0 1-.14-.34c0-.2.07-.36.21-.46.13-.1.3-.15.5-.15.38.01.73.12 1.05.33l.36-.53c-.4-.28-.85-.43-1.38-.44-.44.01-.77.12-1.02.35-.25.23-.37.53-.37.9 0 .3.1.56.3.78.18.2.46.34.83.4l.56.08c.37.07.56.26.56.57-.01.38-.29.58-.84.59-.46 0-.87-.15-1.2-.43l-.43.49c.45.38 1 .58 1.62.58.97-.02 1.47-.43 1.49-1.24 0-.3-.1-.56-.28-.79a1.38 1.38 0 0 0-.88-.42ZM138.07 31.19h-1.68v-1.82h-.64v4.24h.64v-1.85h1.68v1.85h.65v-4.24h-.65v1.82ZM143.19 33.61h2.7v-.6h-2.06v-1.25h1.76v-.57h-1.76v-1.22h2.07v-.6h-2.71v4.24ZM153.02 30.55c-.01-.4-.15-.7-.42-.9-.23-.2-.51-.29-.87-.29h-1.65v4.24h.64V31.8h.82l.88 1.81h.76l-.98-1.88c.54-.2.81-.59.82-1.17Zm-2.3.68v-1.29h1c.21 0 .37.05.48.13.14.1.2.26.21.49 0 .18-.06.33-.17.46-.12.14-.3.2-.55.2h-.97ZM157.29 33.61H160v-.6h-2.07v-1.25h1.76v-.57h-1.76v-1.22H160v-.6h-2.71v4.24Z"/></g><defs><clipPath id="a"><path fill="#fff" d="M0 0h39.02v46H0z"/></clipPath><clipPath id="b"><path fill="#fff" d="M50 12h110v21.64H50z"/></clipPath></defs></svg>