<svg xmlns="http://www.w3.org/2000/svg" width="25" height="25" fill="none" viewBox="0 0 25 25"><path fill="#C8A35F" d="M12.48 0a9.17 9.17 0 0 0-9.16 9.16c0 2.32 1.46 5.6 4.35 9.75a65.36 65.36 0 0 0 4.27 5.47l.54.62.55-.62c.09-.1 2.16-2.44 4.27-5.47 2.88-4.15 4.35-7.43 4.35-9.75A9.17 9.17 0 0 0 12.48 0Zm3.63 18.06a66.42 66.42 0 0 1-3.63 4.72c-.75-.9-2.19-2.66-3.61-4.7-2.68-3.85-4.09-6.93-4.09-8.92a7.71 7.71 0 0 1 15.4 0c0 1.99-1.4 5.07-4.07 8.9Z"/><path fill="#C8A35F" d="M12.48 3.39a5.41 5.41 0 1 0 .01 10.82 5.41 5.41 0 0 0 0-10.82Zm0 9.35a3.95 3.95 0 1 1 .01-7.9 3.95 3.95 0 0 1 0 7.9Z"/></svg>